<svg xmlns="http://www.w3.org/2000/svg" viewBox="0 0 1039.6 624.0" width="1039.6" height="624.0" role="img" aria-label="nes-bench bridge v2b: the UNO version, two ports, sync counted, one supply  (sheet 4 of 4: sync, the pads and the trigger)">

  <style>
    text { font-family: ui-monospace, "SF Mono", Menlo, Consolas, monospace; fill: #1f2328; }
    .title { font-size: 15px; font-weight: 700; font-family: ui-sans-serif, system-ui, sans-serif; }
    .sub { font-size: 11px; fill: #57606a; font-family: ui-sans-serif, system-ui, sans-serif; }
    .ref { font-size: 12px; font-weight: 700; }
    .part { font-size: 10px; fill: #57606a; }
    .pin { font-size: 9.5px; }
    .pinno { font-size: 9px; fill: #57606a; }
    .linkflag { fill: #fdf3e3; stroke: #a35c00; stroke-width: 1.1; }
    .linkno { font-size: 9px; fill: #a35c00; font-weight: 700; }
    .net { font-size: 9.5px; fill: #0a5b9c; font-weight: 600; }
    .rail5 { font-size: 9px; fill: #b3261e; font-weight: 700; }
    .rail3 { font-size: 9px; fill: #b35c00; font-weight: 700; }
    .gnd { font-size: 9px; fill: #1f2328; font-weight: 700; }
    .note { font-size: 10px; fill: #57606a; font-family: ui-sans-serif, system-ui, sans-serif; }
    .box { fill: #ffffff; stroke: #1f2328; stroke-width: 1.3; }
    .offsheet { fill: #eaf3fb; stroke: #0a5b9c; stroke-width: 1.1; }
    .conn { fill: #f3f5f7; stroke: #1f2328; stroke-width: 1.3; }
    .zone { fill: none; stroke: #57606a; stroke-dasharray: 5 4; stroke-width: 1; }
    .lead { stroke: #1f2328; stroke-width: 1; }
    .wire { stroke: #0a5b9c; stroke-width: 1.2; fill: none; }
    .w5 { stroke: #b3261e; stroke-width: 1.2; fill: none; }
    .w3 { stroke: #b35c00; stroke-width: 1.2; fill: none; }
    .wg { stroke: #1f2328; stroke-width: 1.2; fill: none; }
    .lane { stroke: #1f2328; stroke-width: 1.4; fill: none; }
    .lanelbl { font-size: 11px; font-weight: 700; }
    .win { fill: #b3261e; fill-opacity: 0.10; stroke: none; }
    .safe { fill: #1a7f37; fill-opacity: 0.12; stroke: none; }
    .mark { stroke: #0a5b9c; stroke-width: 1.2; stroke-dasharray: 3 3; }
    .auth { font-size: 9px; fill: #b3261e; font-family: ui-sans-serif, system-ui, sans-serif; font-style: italic; }
  </style>

<rect x="0" y="0" width="1039.6" height="624.0" fill="#ffffff"/>
<g class="sheet-heading" data-height="60">
<text class="title" x="24" y="30">nes-bench bridge v2b: the UNO version, two ports, sync counted, one supply  (sheet 4 of 4: sync, the pads and the trigger)</text>
<text class="sub" x="24" y="46">v1b plus a second 165/595 pair on the same SPI chain and an LM1881 whose 5 V outputs go straight into the UNO. 2026-09-09. Not built.</text>
</g>
<rect class="zone" x="22" y="66" width="995.6" height="291.0" rx="6"/>
<text class="sub" x="30" y="80" text-anchor="start">THE SYNC SEPARATOR, THE BRIDGE'S OWN PADS AND THE TRIGGER, ALL AT +5V</text>
<rect class="zone" x="22" y="381.0" width="995.6" height="74.0" rx="6"/>
<text class="sub" x="30" y="395.0" text-anchor="start">THE PASSIVES ON THIS SHEET</text>
<rect class="zone" x="22" y="479.0" width="995.6" height="123.0" rx="6"/>
<text class="sub" x="30" y="493.0" text-anchor="start">WHERE THESE SIGNALS COME FROM AND WHAT THEY ARE WORTH</text>
<rect class="box" x="129.2" y="92.0" width="150" height="154" rx="3"/>
<text class="ref" x="135.2" y="106.0" text-anchor="start">U8</text>
<text class="part" x="135.2" y="118.0" text-anchor="start">LM1881N  at +5V</text>
<text class="part" x="130.2" y="259.0" text-anchor="start">5 V outputs: no 245 needed</text>
<line class="lead" x1="103.19999999999999" y1="148.0" x2="129.2" y2="148.0"/>
<text class="pin" x="134.2" y="151.5" text-anchor="start">VIDEO IN</text>
<text class="pinno" x="125.19999999999999" y="146.0" text-anchor="end">2</text>
<path class="wire" d="M103.19999999999999,148.0 l-6,-6 h-47.2 v12 h47.2 z"/>
<text class="net" x="94.19999999999999" y="151.5" text-anchor="end">VID_AC</text>
<line class="lead" x1="103.19999999999999" y1="174.0" x2="129.2" y2="174.0"/>
<text class="pin" x="134.2" y="177.5" text-anchor="start">RSET</text>
<text class="pinno" x="125.19999999999999" y="172.0" text-anchor="end">6</text>
<path class="wire" d="M103.19999999999999,174.0 l-6,-6 h-34.8 v12 h34.8 z"/>
<text class="net" x="94.19999999999999" y="177.5" text-anchor="end">RSET</text>
<line class="lead" x1="103.19999999999999" y1="200.0" x2="129.2" y2="200.0"/>
<text class="pin" x="134.2" y="203.5" text-anchor="start">VCC</text>
<text class="pinno" x="125.19999999999999" y="198.0" text-anchor="end">8</text>
<line class="w5" x1="103.19999999999999" y1="200.0" x2="103.19999999999999" y2="191.0"/><line class="w5" x1="98.19999999999999" y1="191.0" x2="108.19999999999999" y2="191.0"/>
<text class="rail5" x="103.19999999999999" y="189.0" text-anchor="middle">+5V</text>
<line class="lead" x1="103.19999999999999" y1="226.0" x2="129.2" y2="226.0"/>
<text class="pin" x="134.2" y="229.5" text-anchor="start">GND</text>
<text class="pinno" x="125.19999999999999" y="224.0" text-anchor="end">4</text>
<line class="wg" x1="103.19999999999999" y1="226.0" x2="103.19999999999999" y2="234.0"/><line class="wg" x1="97.19999999999999" y1="234.0" x2="109.19999999999999" y2="234.0"/><line class="wg" x1="100.19999999999999" y1="237.0" x2="106.19999999999999" y2="237.0"/>
<line class="lead" x1="279.2" y1="148.0" x2="305.2" y2="148.0"/>
<text class="pin" x="274.2" y="151.5" text-anchor="end">CSYNC</text>
<text class="pinno" x="283.2" y="146.0" text-anchor="start">1</text>
<path class="linkflag" d="M362.8 148.0 L352.8 139.0 L305.2 139.0 L305.2 157.0 L352.8 157.0 Z"/>
<text class="net" x="311.2" y="151.5" text-anchor="start">CSYNC</text>
<text class="linkno" x="349.8" y="151.5" text-anchor="end">3</text>
<line class="lead" x1="279.2" y1="174.0" x2="305.2" y2="174.0"/>
<text class="pin" x="274.2" y="177.5" text-anchor="end">VSYNC</text>
<text class="pinno" x="283.2" y="172.0" text-anchor="start">3</text>
<path class="linkflag" d="M362.8 174.0 L352.8 165.0 L305.2 165.0 L305.2 183.0 L352.8 183.0 Z"/>
<text class="net" x="311.2" y="177.5" text-anchor="start">VSYNC</text>
<text class="linkno" x="349.8" y="177.5" text-anchor="end">3</text>
<line class="lead" x1="279.2" y1="200.0" x2="305.2" y2="200.0"/>
<text class="pin" x="274.2" y="203.5" text-anchor="end">BURST</text>
<text class="pinno" x="283.2" y="198.0" text-anchor="start">5</text>
<line class="lead" x1="302.2" y1="197.0" x2="308.2" y2="203.0"/><line class="lead" x1="302.2" y1="203.0" x2="308.2" y2="197.0"/>
<line class="lead" x1="279.2" y1="226.0" x2="305.2" y2="226.0"/>
<text class="pin" x="274.2" y="229.5" text-anchor="end">ODD/EVEN</text>
<text class="pinno" x="283.2" y="224.0" text-anchor="start">7</text>
<line class="lead" x1="302.2" y1="223.0" x2="308.2" y2="229.0"/><line class="lead" x1="302.2" y1="229.0" x2="308.2" y2="223.0"/>
<rect class="conn" x="501.20000000000005" y="92.0" width="176.0" height="232" rx="3"/>
<text class="ref" x="507.20000000000005" y="106.0" text-anchor="start">J2</text>
<text class="part" x="507.20000000000005" y="118.0" text-anchor="start">original pad, on the bridge</text>
<text class="part" x="502.20000000000005" y="337.0" text-anchor="start">the pad half of the cut cable</text>
<line class="lead" x1="475.20000000000005" y1="148.0" x2="501.20000000000005" y2="148.0"/>
<text class="pin" x="506.20000000000005" y="151.5" text-anchor="start">GND</text>
<text class="pinno" x="497.20000000000005" y="146.0" text-anchor="end">1</text>
<line class="wg" x1="475.20000000000005" y1="148.0" x2="475.20000000000005" y2="156.0"/><line class="wg" x1="469.20000000000005" y1="156.0" x2="481.20000000000005" y2="156.0"/><line class="wg" x1="472.20000000000005" y1="159.0" x2="478.20000000000005" y2="159.0"/>
<line class="lead" x1="475.20000000000005" y1="174.0" x2="501.20000000000005" y2="174.0"/>
<text class="pin" x="506.20000000000005" y="177.5" text-anchor="start">CLK</text>
<text class="pinno" x="497.20000000000005" y="172.0" text-anchor="end">2</text>
<path class="linkflag" d="M405.20000000000005 174.0 L415.20000000000005 165.0 L475.20000000000005 165.0 L475.20000000000005 183.0 L415.20000000000005 183.0 Z"/>
<text class="net" x="419.20000000000005" y="177.5" text-anchor="start">PAD_CLK</text>
<text class="linkno" x="469.20000000000005" y="177.5" text-anchor="end">3</text>
<line class="lead" x1="475.20000000000005" y1="200.0" x2="501.20000000000005" y2="200.0"/>
<text class="pin" x="506.20000000000005" y="203.5" text-anchor="start">OUT0</text>
<text class="pinno" x="497.20000000000005" y="198.0" text-anchor="end">3</text>
<path class="linkflag" d="M392.80000000000007 200.0 L402.80000000000007 191.0 L475.20000000000005 191.0 L475.20000000000005 209.0 L402.80000000000007 209.0 Z"/>
<text class="net" x="406.80000000000007" y="203.5" text-anchor="start">PAD_LATCH</text>
<text class="linkno" x="469.20000000000005" y="203.5" text-anchor="end">3</text>
<line class="lead" x1="475.20000000000005" y1="226.0" x2="501.20000000000005" y2="226.0"/>
<text class="pin" x="506.20000000000005" y="229.5" text-anchor="start">D0</text>
<text class="pinno" x="497.20000000000005" y="224.0" text-anchor="end">4</text>
<path class="linkflag" d="M405.20000000000005 226.0 L415.20000000000005 217.0 L475.20000000000005 217.0 L475.20000000000005 235.0 L415.20000000000005 235.0 Z"/>
<text class="net" x="419.20000000000005" y="229.5" text-anchor="start">PAD1_D0</text>
<text class="linkno" x="469.20000000000005" y="229.5" text-anchor="end">3</text>
<line class="lead" x1="475.20000000000005" y1="252.0" x2="501.20000000000005" y2="252.0"/>
<text class="pin" x="506.20000000000005" y="255.5" text-anchor="start">+5V</text>
<text class="pinno" x="497.20000000000005" y="250.0" text-anchor="end">5</text>
<line class="w5" x1="475.20000000000005" y1="252.0" x2="475.20000000000005" y2="243.0"/><line class="w5" x1="470.20000000000005" y1="243.0" x2="480.20000000000005" y2="243.0"/>
<text class="rail5" x="475.20000000000005" y="241.0" text-anchor="middle">+5V</text>
<line class="lead" x1="475.20000000000005" y1="278.0" x2="501.20000000000005" y2="278.0"/>
<text class="pin" x="506.20000000000005" y="281.5" text-anchor="start">n/c</text>
<text class="pinno" x="497.20000000000005" y="276.0" text-anchor="end">6</text>
<line class="lead" x1="472.20000000000005" y1="275.0" x2="478.20000000000005" y2="281.0"/><line class="lead" x1="472.20000000000005" y1="281.0" x2="478.20000000000005" y2="275.0"/>
<line class="lead" x1="475.20000000000005" y1="304.0" x2="501.20000000000005" y2="304.0"/>
<text class="pin" x="506.20000000000005" y="307.5" text-anchor="start">n/c</text>
<text class="pinno" x="497.20000000000005" y="302.0" text-anchor="end">7</text>
<line class="lead" x1="472.20000000000005" y1="301.0" x2="478.20000000000005" y2="307.0"/><line class="lead" x1="472.20000000000005" y1="307.0" x2="478.20000000000005" y2="301.0"/>
<rect class="conn" x="815.6" y="92.0" width="176.0" height="232" rx="3"/>
<text class="ref" x="821.6" y="106.0" text-anchor="start">J4</text>
<text class="part" x="821.6" y="118.0" text-anchor="start">original pad, on the bridge</text>
<text class="part" x="816.6" y="337.0" text-anchor="start">the pad half of the cut cable</text>
<line class="lead" x1="789.6" y1="148.0" x2="815.6" y2="148.0"/>
<text class="pin" x="820.6" y="151.5" text-anchor="start">GND</text>
<text class="pinno" x="811.6" y="146.0" text-anchor="end">1</text>
<line class="wg" x1="789.6" y1="148.0" x2="789.6" y2="156.0"/><line class="wg" x1="783.6" y1="156.0" x2="795.6" y2="156.0"/><line class="wg" x1="786.6" y1="159.0" x2="792.6" y2="159.0"/>
<line class="lead" x1="789.6" y1="174.0" x2="815.6" y2="174.0"/>
<text class="pin" x="820.6" y="177.5" text-anchor="start">CLK</text>
<text class="pinno" x="811.6" y="172.0" text-anchor="end">2</text>
<path class="linkflag" d="M719.6 174.0 L729.6 165.0 L789.6 165.0 L789.6 183.0 L729.6 183.0 Z"/>
<text class="net" x="733.6" y="177.5" text-anchor="start">PAD_CLK</text>
<text class="linkno" x="783.6" y="177.5" text-anchor="end">3</text>
<line class="lead" x1="789.6" y1="200.0" x2="815.6" y2="200.0"/>
<text class="pin" x="820.6" y="203.5" text-anchor="start">OUT0</text>
<text class="pinno" x="811.6" y="198.0" text-anchor="end">3</text>
<path class="linkflag" d="M707.2 200.0 L717.2 191.0 L789.6 191.0 L789.6 209.0 L717.2 209.0 Z"/>
<text class="net" x="721.2" y="203.5" text-anchor="start">PAD_LATCH</text>
<text class="linkno" x="783.6" y="203.5" text-anchor="end">3</text>
<line class="lead" x1="789.6" y1="226.0" x2="815.6" y2="226.0"/>
<text class="pin" x="820.6" y="229.5" text-anchor="start">D0</text>
<text class="pinno" x="811.6" y="224.0" text-anchor="end">4</text>
<path class="linkflag" d="M719.6 226.0 L729.6 217.0 L789.6 217.0 L789.6 235.0 L729.6 235.0 Z"/>
<text class="net" x="733.6" y="229.5" text-anchor="start">PAD2_D0</text>
<text class="linkno" x="783.6" y="229.5" text-anchor="end">3</text>
<line class="lead" x1="789.6" y1="252.0" x2="815.6" y2="252.0"/>
<text class="pin" x="820.6" y="255.5" text-anchor="start">+5V</text>
<text class="pinno" x="811.6" y="250.0" text-anchor="end">5</text>
<line class="w5" x1="789.6" y1="252.0" x2="789.6" y2="243.0"/><line class="w5" x1="784.6" y1="243.0" x2="794.6" y2="243.0"/>
<text class="rail5" x="789.6" y="241.0" text-anchor="middle">+5V</text>
<line class="lead" x1="789.6" y1="278.0" x2="815.6" y2="278.0"/>
<text class="pin" x="820.6" y="281.5" text-anchor="start">n/c</text>
<text class="pinno" x="811.6" y="276.0" text-anchor="end">6</text>
<line class="lead" x1="786.6" y1="275.0" x2="792.6" y2="281.0"/><line class="lead" x1="786.6" y1="281.0" x2="792.6" y2="275.0"/>
<line class="lead" x1="789.6" y1="304.0" x2="815.6" y2="304.0"/>
<text class="pin" x="820.6" y="307.5" text-anchor="start">n/c</text>
<text class="pinno" x="811.6" y="302.0" text-anchor="end">7</text>
<line class="lead" x1="786.6" y1="301.0" x2="792.6" y2="307.0"/><line class="lead" x1="786.6" y1="307.0" x2="792.6" y2="301.0"/>
<path class="offsheet" d="M50.0 415.0 L81.0 415.0 L89.0 423.0 L81.0 431.0 L50.0 431.0 Z"/>
<text class="net" x="55.0" y="426.5" text-anchor="start">VIDEO</text>
<line class="lead" x1="89.0" y1="423.0" x2="107.0" y2="423.0"/><rect class="box" x="107.0" y="416.0" width="44" height="14"/><line class="lead" x1="151.0" y1="423.0" x2="169.0" y2="423.0"/>
<text class="pinno" x="129.0" y="413.0" text-anchor="middle">C7</text>
<text class="pin" x="129.0" y="427.0" text-anchor="middle">100nF</text>
<path class="wire" d="M169.0,423.0 l6,-6 h47.2 v12 h-47.2 z"/>
<text class="net" x="178.0" y="426.5" text-anchor="start">VID_AC</text>
<path class="wire" d="M297.0,423.0 l-6,-6 h-34.8 v12 h34.8 z"/>
<text class="net" x="288.0" y="426.5" text-anchor="end">RSET</text>
<line class="lead" x1="297.0" y1="423.0" x2="315.0" y2="423.0"/><rect class="box" x="315.0" y="416.0" width="44" height="14"/><line class="lead" x1="359.0" y1="423.0" x2="377.0" y2="423.0"/>
<text class="pinno" x="337.0" y="413.0" text-anchor="middle">R2</text>
<text class="pin" x="337.0" y="427.0" text-anchor="middle">680k</text>
<line class="wg" x1="377.0" y1="423.0" x2="377.0" y2="431.0"/><line class="wg" x1="371.0" y1="431.0" x2="383.0" y2="431.0"/><line class="wg" x1="374.0" y1="434.0" x2="380.0" y2="434.0"/>
<path class="wire" d="M465.8,423.0 l-6,-6 h-34.8 v12 h34.8 z"/>
<text class="net" x="456.8" y="426.5" text-anchor="end">RSET</text>
<line class="lead" x1="465.8" y1="423.0" x2="483.8" y2="423.0"/><rect class="box" x="483.8" y="416.0" width="44" height="14"/><line class="lead" x1="527.8" y1="423.0" x2="545.8" y2="423.0"/>
<text class="pinno" x="505.8" y="413.0" text-anchor="middle">C8</text>
<text class="pin" x="505.8" y="427.0" text-anchor="middle">100nF</text>
<line class="wg" x1="545.8" y1="423.0" x2="545.8" y2="431.0"/><line class="wg" x1="539.8" y1="431.0" x2="551.8" y2="431.0"/><line class="wg" x1="542.8" y1="434.0" x2="548.8" y2="434.0"/>
<path class="linkflag" d="M591.8 423.0 L601.8 414.0 L643.1999999999999 414.0 L643.1999999999999 432.0 L601.8 432.0 Z"/>
<text class="net" x="605.8" y="426.5" text-anchor="start">TRIG</text>
<text class="linkno" x="637.1999999999999" y="426.5" text-anchor="end">3</text>
<line class="lead" x1="643.1999999999999" y1="423.0" x2="661.1999999999999" y2="423.0"/><rect class="box" x="661.1999999999999" y="416.0" width="44" height="14"/><line class="lead" x1="705.1999999999999" y1="423.0" x2="723.1999999999999" y2="423.0"/>
<text class="pinno" x="683.1999999999999" y="413.0" text-anchor="middle">R1</text>
<text class="pin" x="683.1999999999999" y="427.0" text-anchor="middle">100R</text>
<path class="offsheet" d="M723.1999999999999 415.0 L772.8 415.0 L780.8 423.0 L772.8 431.0 L723.1999999999999 431.0 Z"/>
<text class="net" x="728.1999999999999" y="426.5" text-anchor="start">EXT_TRIG</text>
<text class="note" x="48.0" y="516.0" text-anchor="start">C7 AC couples the console's video, tapped after Q1 at the AUX/RF</text>
<text class="note" x="48.0" y="529.0" text-anchor="start">input with a 1k series resistor: the point the scope already probes.</text>
<text class="note" x="48.0" y="542.0" text-anchor="start">VSYNC: one falling edge per field, 60.0988/s.</text>
<text class="note" x="48.0" y="555.0" text-anchor="start">CSYNC: one per line plus the vsync block. The NES emits no</text>
<text class="note" x="48.0" y="568.0" text-anchor="start">serrations, so the count per field is lines minus k, and k is</text>
<text class="note" x="48.0" y="581.0" text-anchor="start">measured rather than assumed.</text>
<text class="note" x="445.20000000000005" y="516.0" text-anchor="start">R1 goes to the DS1054Z's rear EXT TRIG. Check the input's rating</text>
<text class="note" x="445.20000000000005" y="529.0" text-anchor="start">first; if 5 V exceeds it, a 2:1 divider (two 1k) after R1.</text>
<text class="note" x="445.20000000000005" y="542.0" text-anchor="start">Both pads are polled by the same PAD_LATCH and PAD_CLK and answer</text>
<text class="note" x="445.20000000000005" y="555.0" text-anchor="start">on their own D0, so one poll reads both. They are the pad halves</text>
<text class="note" x="445.20000000000005" y="568.0" text-anchor="start">of two cut controller cables, and they run at the 5 V they were</text>
<text class="note" x="445.20000000000005" y="581.0" text-anchor="start">built for.</text>
</svg>